<?xml version="1.0" standalone="no"?>
<!DOCTYPE svg PUBLIC "-//W3C//DTD SVG 20010904//EN"
 "http://www.w3.org/TR/2001/REC-SVG-20010904/DTD/svg10.dtd">
<svg version="1.0" xmlns="http://www.w3.org/2000/svg"
 width="512.000000pt" height="512.000000pt" viewBox="0 0 512.000000 512.000000"
 preserveAspectRatio="xMidYMid meet">
<metadata>
Created by potrace 1.11, written by Peter Selinger 2001-2013
</metadata>
<g transform="translate(0.000000,512.000000) scale(0.100000,-0.100000)"
fill="#000000" stroke="none">
<path d="M2506 4888 c-36 -57 -39 -252 -6 -439 13 -75 22 -94 42 -86 31 12 58
177 58 362 0 77 -5 110 -20 143 -22 48 -51 56 -74 20z"/>
<path d="M1864 4752 c-38 -26 -16 -96 69 -214 117 -164 173 -224 231 -253 99
-48 128 -11 76 99 -25 53 -59 95 -154 193 -108 112 -188 183 -205 183 -3 0
-11 -4 -17 -8z"/>
<path d="M3143 4692 c-187 -165 -315 -351 -283 -411 16 -31 41 -26 112 22 44
29 89 74 151 152 136 170 148 191 145 250 -4 75 -28 73 -125 -13z"/>
<path d="M2757 4656 c-50 -53 -77 -190 -58 -291 13 -70 21 -81 51 -65 52 28
108 217 91 307 -14 74 -45 92 -84 49z"/>
<path d="M2250 4655 c-21 -25 -6 -108 33 -188 39 -78 100 -157 123 -157 7 0
21 14 30 31 15 30 15 35 -20 133 -58 159 -124 232 -166 181z"/>
<path d="M2470 4119 c-179 -10 -292 -25 -425 -56 -427 -100 -735 -310 -880
-602 -49 -97 -73 -216 -54 -257 13 -26 21 -30 74 -36 33 -5 609 -9 1280 -9
1211 -2 1508 4 1540 31 11 9 15 34 15 95 0 173 -42 276 -160 395 -116 116
-169 158 -260 206 -157 83 -224 107 -495 180 -27 8 -106 20 -175 29 -69 8
-147 19 -175 24 -57 11 -96 11 -285 0z m166 -184 c10 -26 -6 -38 -27 -19 -10
9 -16 21 -13 25 8 14 34 10 40 -6z m-432 -27 c-10 -33 -24 -48 -45 -48 -25 0
-24 25 3 50 30 28 51 27 42 -2z m225 -22 c19 -23 10 -71 -14 -71 -26 0 -44 47
-25 69 16 20 24 20 39 2z m395 -12 c9 -22 7 -54 -2 -54 -15 0 -32 24 -32 47 0
26 25 31 34 7z m322 -11 c8 -14 7 -25 -7 -47 -17 -27 -17 -28 -28 -8 -18 33
-14 72 7 72 9 0 22 -8 28 -17z m-1248 -34 c4 -22 -36 -69 -59 -69 -26 0 -24
17 7 57 26 34 47 39 52 12z m701 -90 c8 -23 8 -30 -2 -26 -15 5 -38 48 -31 59
8 13 21 0 33 -33z m719 14 c2 -11 -4 -25 -12 -32 -21 -18 -47 -7 -39 16 16 45
45 55 51 16z m-318 -6 c0 -8 -9 -22 -20 -32 -27 -24 -47 -8 -31 24 13 23 51
29 51 8z m-1405 -77 c4 -19 1 -37 -8 -51 -15 -20 -16 -20 -25 -2 -5 10 -8 23
-7 28 2 6 6 23 9 38 8 34 22 28 31 -13z m563 4 c2 -11 -6 -32 -17 -45 -17 -20
-22 -22 -30 -9 -9 13 -6 52 6 73 9 15 38 2 41 -19z m1356 -31 c-25 -18 -44
-16 -44 5 0 32 21 44 43 25 17 -16 17 -18 1 -30z m-1191 -15 c7 -24 -17 -58
-40 -58 -18 0 -16 40 4 62 21 24 29 23 36 -4z m547 -43 c0 -5 -4 -17 -10 -25
-7 -12 -12 -12 -29 4 -23 21 -28 62 -8 69 12 5 47 -30 47 -48z m478 -47 c-3
-48 -18 -55 -32 -16 -11 31 -2 58 19 58 13 0 15 -9 13 -42z m-1454 -7 c11 -18
-6 -40 -36 -46 -38 -9 -44 -1 -24 30 16 25 50 34 60 16z m1206 -40 c0 -18 -34
-51 -52 -51 -13 0 -9 24 8 48 19 27 44 29 44 3z m-465 -1 c10 -16 -14 -40 -41
-40 -26 0 -38 14 -30 35 6 17 62 20 71 5z"/>
<path d="M1779 3130 c-527 -4 -649 -8 -662 -19 -25 -20 -21 -58 7 -76 21 -14
170 -15 1433 -13 1516 3 1443 1 1443 53 0 50 12 49 -659 52 -344 1 -691 3
-771 5 -80 2 -436 1 -791 -2z"/>
<path d="M1950 3001 l-685 -6 -48 -24 c-52 -25 -87 -65 -113 -126 -38 -93 31
-225 134 -255 26 -8 427 -10 1327 -8 l1290 3 47 28 c139 81 132 283 -12 357
-31 16 -77 18 -395 24 -683 12 -862 12 -1545 7z m1033 -90 c4 -17 2 -18 -24
-9 -31 11 -30 28 0 28 10 0 21 -9 24 -19z m175 -74 c8 -9 2 -18 -23 -34 -26
-17 -34 -19 -38 -9 -7 17 20 56 37 56 8 0 18 -6 24 -13z m-1090 -28 c1 -8 -11
-19 -30 -27 -37 -14 -42 -11 -33 17 9 30 57 38 63 10z m1856 -8 c14 -15 14
-20 2 -30 -11 -9 -16 -6 -24 19 -12 34 -3 39 22 11z m-2675 -54 c1 -5 -3 -5
-9 -2 -5 3 -10 16 -9 28 0 21 1 21 9 2 5 -11 9 -24 9 -28z m1336 13 c-19 -21
-38 -18 -29 5 5 13 34 25 43 18 2 -1 -4 -12 -14 -23z m-330 -120 c-28 -12 -37
-12 -30 0 3 6 16 10 28 9 21 0 21 -1 2 -9z"/>
<path d="M1128 2531 c-26 -23 -33 -37 -33 -68 0 -45 26 -90 58 -103 12 -5 84
-28 160 -51 135 -41 142 -42 245 -36 77 4 129 13 185 31 92 31 142 29 326 -11
130 -29 254 -29 306 -1 17 9 64 24 105 33 81 19 87 19 245 -25 117 -32 236
-31 340 4 129 43 181 44 313 6 103 -29 123 -32 215 -28 86 4 123 11 232 47 72
24 140 52 153 64 54 50 6 157 -71 157 -19 0 -88 -16 -153 -36 -169 -51 -199
-52 -314 -13 -137 46 -242 46 -400 0 -136 -40 -169 -39 -339 9 -136 39 -203
37 -341 -5 -115 -36 -173 -35 -293 4 -131 42 -197 41 -387 -4 l-147 -35 -159
45 c-87 25 -171 45 -186 45 -16 0 -41 -12 -60 -29z"/>
<path d="M1160 2217 c-16 -4 -37 -19 -47 -33 -14 -22 -15 -33 -4 -91 13 -72
38 -128 68 -156 19 -17 22 -16 76 8 80 37 170 49 259 35 132 -20 216 -77 263
-176 26 -54 26 -55 68 -53 23 1 159 -3 302 -10 194 -9 377 -9 720 -1 612 14
702 22 882 83 175 60 262 156 263 290 0 74 -20 96 -87 98 -27 1 -122 4 -213 7
-267 8 -2517 8 -2550 -1z"/>
<path d="M1330 1934 c-167 -44 -275 -181 -273 -345 1 -67 27 -148 52 -164 7
-4 30 5 52 19 44 30 46 28 22 -32 -19 -47 -15 -46 -100 -22 -92 26 -181 -11
-222 -93 -32 -64 -24 -123 25 -177 40 -45 89 -64 156 -62 49 1 129 30 160 59
16 14 21 13 66 -15 133 -86 271 -83 360 8 17 19 38 46 44 62 16 36 24 35 31
-1 3 -16 17 -42 31 -57 22 -26 30 -29 88 -29 53 0 72 5 105 27 36 24 43 25 54
12 21 -25 66 -44 105 -44 108 0 248 133 333 318 25 53 41 67 41 35 0 -10 -14
-56 -30 -103 -41 -116 -40 -160 4 -208 33 -35 37 -37 98 -37 56 0 68 4 111 34
l47 35 16 -22 c8 -12 29 -29 45 -38 l31 -15 -57 -52 c-47 -43 -57 -59 -62 -93
-14 -111 105 -179 222 -125 51 23 81 58 133 157 37 71 46 82 94 107 29 15 76
47 104 72 l51 44 11 -24 c6 -13 30 -37 53 -52 39 -26 50 -28 139 -28 91 0 100
2 172 38 96 47 166 122 229 242 64 123 80 107 29 -30 -13 -35 -23 -86 -24
-122 -1 -58 1 -65 31 -94 40 -41 111 -51 167 -24 53 25 119 95 167 175 43 74
43 96 -2 120 -28 16 -52 5 -73 -32 -27 -47 -97 -140 -102 -135 -2 2 12 50 32
106 22 64 33 110 28 124 -8 28 -69 92 -112 119 -34 21 -35 26 -17 83 5 17 -2
25 -33 43 -52 29 -65 28 -107 -9 -42 -37 -55 -78 -41 -136 9 -40 6 -49 -30
-119 -50 -98 -101 -156 -166 -188 -76 -38 -178 -33 -178 9 0 12 15 15 68 15
110 1 193 53 228 147 21 54 15 134 -12 165 -29 32 -94 58 -150 58 -127 0 -214
-67 -302 -236 -49 -93 -133 -206 -145 -194 -3 3 31 92 74 199 44 107 78 200
75 208 -8 19 -170 18 -188 -1 -11 -11 -18 -11 -48 5 -72 39 -166 16 -229 -56
-17 -20 -47 -68 -67 -108 -43 -85 -143 -241 -150 -234 -3 2 5 31 16 63 40 108
49 142 43 166 -7 28 -66 92 -111 120 -34 21 -34 20 -16 83 4 16 -3 26 -36 44
-49 27 -75 23 -115 -19 -28 -29 -30 -37 -30 -108 0 -67 -5 -85 -33 -141 -41
-79 -82 -139 -123 -180 -63 -64 -60 -48 35 192 37 92 64 172 61 177 -7 12
-165 13 -181 2 -6 -4 -32 -61 -59 -127 -50 -127 -71 -167 -118 -227 -62 -80
-52 -38 42 195 29 70 51 135 49 145 -3 14 -16 18 -73 20 -111 5 -104 11 -171
-157 -55 -141 -74 -170 -74 -117 0 13 -13 48 -28 78 l-28 56 39 32 c51 43 77
100 77 171 0 185 -208 302 -430 243z m44 -173 c-42 -25 -76 -72 -112 -151
l-30 -65 -7 36 c-13 67 35 146 110 180 53 24 79 24 39 0z m186 -19 c12 -15 20
-40 20 -62 0 -50 -44 -90 -98 -90 l-36 0 26 28 c53 57 60 74 44 119 -14 39
-13 40 5 36 11 -3 28 -17 39 -31z m1989 -308 c-12 -23 -54 -43 -65 -31 -3 3
12 22 32 43 40 39 57 33 33 -12z m-539 16 c0 -11 -12 -49 -26 -85 -30 -74 -91
-139 -105 -112 -18 30 48 183 89 206 27 16 42 13 42 -9z m-1553 -31 c114 -71
60 -233 -66 -199 -20 5 -45 16 -56 24 -18 13 -18 16 20 105 23 54 45 91 53 91
8 0 30 -9 49 -21z m-377 -178 c0 -10 -58 -23 -71 -15 -5 3 -7 10 -4 15 8 11
75 12 75 0z m1824 -253 c-18 -37 -60 -85 -86 -99 -23 -13 -58 6 -58 30 0 25
37 57 95 79 67 27 68 27 49 -10z"/>
<path d="M1425 1013 c-64 -4 -85 -15 -85 -43 0 -42 3 -42 626 -41 371 1 604 6
616 12 22 12 24 42 4 58 -11 9 -158 13 -558 16 -299 1 -570 1 -603 -2z"/>
<path d="M3072 998 c-7 -7 -12 -19 -12 -28 0 -38 14 -40 356 -40 331 0 333 0
348 22 14 20 14 24 -1 40 -15 17 -41 18 -348 18 -244 0 -334 -3 -343 -12z"/>
<path d="M1587 867 c-13 -9 -18 -23 -15 -42 l3 -30 513 0 c536 0 532 0 532 40
0 40 2 40 -517 43 -403 2 -502 0 -516 -11z"/>
<path d="M2990 860 c-24 -24 -25 -34 -4 -54 23 -24 518 -24 552 0 27 19 28 28
2 54 -19 19 -33 20 -275 20 -242 0 -256 -1 -275 -20z"/>
<path d="M3378 750 c-100 -12 -152 -33 -294 -116 -257 -152 -311 -168 -365
-115 -16 16 -29 36 -29 44 0 23 29 41 60 39 48 -4 80 49 46 77 -47 39 -117 29
-166 -24 -21 -23 -25 -36 -25 -93 0 -81 25 -124 89 -153 88 -40 177 -17 339
84 162 102 257 144 360 162 48 8 190 -30 225 -60 34 -30 33 -81 -3 -112 -32
-28 -65 -29 -96 -3 l-24 20 28 21 c47 36 30 99 -27 99 -43 0 -81 -35 -97 -90
-12 -39 -11 -46 12 -89 18 -35 36 -52 73 -70 45 -23 53 -24 104 -13 104 22
162 88 162 186 0 149 -151 233 -372 206z"/>
<path d="M1565 744 c-128 -32 -206 -112 -207 -212 0 -27 7 -63 16 -79 32 -64
114 -113 186 -113 39 1 103 34 134 71 25 29 28 39 24 88 -4 45 -10 59 -37 83
-72 64 -155 10 -95 -62 37 -43 24 -65 -35 -64 -47 1 -76 23 -86 65 -5 21 0 34
25 63 38 42 80 56 174 56 130 0 253 -42 390 -135 164 -109 278 -140 363 -96
85 43 119 150 71 221 -46 69 -140 87 -174 34 -23 -34 -4 -61 49 -71 36 -7 42
-13 45 -35 2 -17 -5 -35 -19 -49 -18 -18 -28 -20 -70 -15 -64 9 -108 28 -193
85 -176 119 -287 161 -441 166 -55 2 -109 2 -120 -1z"/>
<path d="M2540 415 c-17 -28 -28 -35 -53 -36 -18 0 -41 -4 -52 -8 -19 -8 -19
-8 4 -20 31 -17 52 -71 44 -112 l-6 -32 42 23 c40 23 43 23 70 7 43 -25 50
-22 48 28 -2 37 3 49 25 72 l28 28 -42 10 c-30 7 -49 19 -64 43 l-22 32 -22
-35z"/>
</g>
</svg>
